# Blender v2.74 (sub 0) OBJ File: ''
# www.blender.org
mtllib untitled-scene.mtl
o Cylinder
v 0.000000 2.500000 10.000000
v 1.736500 2.500000 9.848100
v 3.420200 2.500000 9.396900
v 5.000000 2.500000 8.660300
v 6.427900 2.500000 7.660400
v 7.660400 2.500000 6.427900
v 8.660300 2.500000 5.000000
v 9.396900 2.500000 3.420200
v 9.848100 2.500000 1.736500
v -8.660300 2.500000 5.000000
v -7.660400 2.500000 6.427900
v -6.427900 2.500000 7.660400
v -5.000000 2.500000 8.660300
v -3.420200 2.500000 9.396900
v -1.736500 2.500000 9.848100
v 0.000000 2.000000 9.974999
v 1.732185 2.000000 9.823484
v 3.411660 2.000000 9.373455
v 4.987500 2.000000 8.638559
v 6.411825 2.000000 7.641270
v 7.641270 2.000000 6.411825
v 8.638559 2.000000 4.987500
v 9.373455 2.000000 3.411660
v 9.823484 2.000000 1.732185
v -8.638559 2.000000 4.987500
v -7.641270 2.000000 6.411825
v -6.411825 2.000000 7.641270
v -4.987500 2.000000 8.638559
v -3.411660 2.000000 9.373455
v -1.732185 2.000000 9.823484
v 0.000000 2.000000 9.000000
v 1.562800 2.000000 8.863300
v 3.078200 2.000000 8.457200
v 4.500000 2.000000 7.794200
v 5.785100 2.000000 6.894400
v 6.894400 2.000000 5.785100
v 7.794200 2.000000 4.500000
v 8.457200 2.000000 3.078200
v 8.863300 2.000000 1.562800
v -7.794200 2.000000 4.500000
v -6.894400 2.000000 5.785100
v -5.785100 2.000000 6.894400
v -4.500000 2.000000 7.794200
v -3.078200 2.000000 8.457200
v -1.562800 2.000000 8.863300
v 0.000000 1.000000 8.924999
v 1.549800 1.000000 8.789445
v 3.052560 1.000000 8.386769
v 4.462500 1.000000 7.729259
v 5.736885 1.000000 6.836970
v 6.836970 1.000000 5.736885
v 7.729259 1.000000 4.462500
v 8.386769 1.000000 3.052560
v 8.789445 1.000000 1.549800
v -7.729259 1.000000 4.462500
v -6.836970 1.000000 5.736885
v -5.736885 1.000000 6.836970
v -4.462500 1.000000 7.729259
v -3.052560 1.000000 8.386769
v -1.549800 1.000000 8.789445
v 0.000000 1.000000 8.000000
v 1.389200 1.000000 7.878500
v 2.736200 1.000000 7.517500
v 4.000000 1.000000 6.928200
v 5.142300 1.000000 6.128400
v 6.128400 1.000000 5.142300
v 6.928200 1.000000 4.000000
v 7.517500 1.000000 2.736200
v 7.878500 1.000000 1.389200
v -6.928200 1.000000 4.000000
v -6.128400 1.000000 5.142300
v -5.142300 1.000000 6.128400
v -4.000000 1.000000 6.928200
v -2.736200 1.000000 7.517500
v -1.389200 1.000000 7.878500
v 0.000000 0.000000 7.875000
v 1.367520 0.000000 7.755404
v 2.693460 0.000000 7.400084
v 3.937500 0.000000 6.819960
v 5.061945 0.000000 6.032565
v 6.032565 0.000000 5.061945
v 6.819960 0.000000 3.937500
v 7.400084 0.000000 2.693460
v 7.755404 0.000000 1.367520
v -6.819960 0.000000 3.937500
v -6.032565 0.000000 5.061945
v -5.061945 0.000000 6.032565
v -3.937500 0.000000 6.819960
v -2.693460 0.000000 7.400084
v -1.367520 0.000000 7.755404
v 0.000000 0.000000 7.000000
v 1.215500 0.000000 6.893700
v 2.394100 0.000000 6.577800
v 3.500000 0.000000 6.062200
v 4.499500 0.000000 5.362300
v 5.362300 0.000000 4.499500
v 6.062200 0.000000 3.500000
v 6.577800 0.000000 2.394100
v 6.893700 0.000000 1.215500
v -6.062200 0.000000 3.500000
v -5.362300 0.000000 4.499500
v -4.499500 0.000000 5.362300
v -3.500000 0.000000 6.062200
v -2.394100 0.000000 6.577800
v -1.215500 0.000000 6.893700
v 0.000000 -1.000000 6.825000
v 1.185135 -1.000000 6.721364
v 2.334255 -1.000000 6.413400
v 3.412500 -1.000000 5.910660
v 4.387005 -1.000000 5.228265
v 5.228265 -1.000000 4.387005
v 5.910660 -1.000000 3.412500
v 6.413400 -1.000000 2.334255
v 6.721364 -1.000000 1.185135
v -5.910660 -1.000000 3.412500
v -5.228265 -1.000000 4.387005
v -4.387005 -1.000000 5.228265
v -3.412500 -1.000000 5.910660
v -2.334255 -1.000000 6.413400
v -1.185135 -1.000000 6.721364
v 0.000000 -1.000000 6.000000
v 1.041900 -1.000000 5.908800
v 2.052100 -1.000000 5.638200
v 3.000000 -1.000000 5.196200
v 3.856700 -1.000000 4.596300
v 4.596300 -1.000000 3.856700
v 5.196200 -1.000000 3.000000
v 5.638200 -1.000000 2.052100
v 5.908800 -1.000000 1.041900
v -5.196200 -1.000000 3.000000
v -4.596300 -1.000000 3.856700
v -3.856700 -1.000000 4.596300
v -3.000000 -1.000000 5.196200
v -2.052100 -1.000000 5.638200
v -1.041900 -1.000000 5.908800
v 0.000000 -2.000000 5.741343
v 0.997010 -2.000000 5.654074
v 1.963644 -2.000000 5.395088
v 2.870672 -2.000000 4.972107
v 3.690431 -2.000000 4.398077
v 4.398077 -2.000000 3.690431
v 4.972107 -2.000000 2.870672
v 5.395088 -2.000000 1.963644
v 5.654074 -2.000000 0.997010
v -4.972107 -2.000000 2.870672
v -4.398077 -2.000000 3.690431
v -3.690431 -2.000000 4.398077
v -2.870672 -2.000000 4.972107
v -1.963644 -2.000000 5.395088
v -0.997010 -2.000000 5.654074
v 0.000000 -2.000000 5.000000
v 0.868200 -2.000000 4.924000
v 1.710100 -2.000000 4.698500
v 2.500000 -2.000000 4.330100
v 3.213900 -2.000000 3.830200
v 3.830200 -2.000000 3.213900
v 4.330100 -2.000000 2.500000
v 4.698500 -2.000000 1.710100
v 4.924000 -2.000000 0.868200
v -4.330100 -2.000000 2.500000
v -3.830200 -2.000000 3.213900
v -3.213900 -2.000000 3.830200
v -2.500000 -2.000000 4.330100
v -1.710100 -2.000000 4.698500
v -0.868200 -2.000000 4.924000
vt 0.027778 1.000000
vt 0.027778 0.900000
vt 0.000000 0.900000
vt 0.000000 1.000000
vt 0.027778 0.800000
vt 0.000000 0.800000
vt 0.027778 0.700000
vt 0.000000 0.700000
vt 0.027778 0.600000
vt 0.000000 0.600000
vt 0.027778 0.500000
vt 0.000000 0.500000
vt 0.027778 0.400000
vt 0.000000 0.400000
vt 0.027778 0.300000
vt 0.000000 0.300000
vt 0.027778 0.200000
vt 0.000000 0.200000
vt 0.027778 0.100000
vt 0.000000 0.100000
vt 0.027778 0.000000
vt 0.000000 0.000000
vt 0.055556 1.000000
vt 0.055556 0.900000
vt 0.055556 0.800000
vt 0.055556 0.700000
vt 0.055556 0.600000
vt 0.055556 0.500000
vt 0.055556 0.400000
vt 0.055556 0.300000
vt 0.055556 0.200000
vt 0.055556 0.100000
vt 0.055556 0.000000
vt 0.083333 1.000000
vt 0.083333 0.900000
vt 0.083333 0.800000
vt 0.083333 0.700000
vt 0.083333 0.600000
vt 0.083333 0.500000
vt 0.083333 0.400000
vt 0.083333 0.300000
vt 0.083333 0.200000
vt 0.083333 0.100000
vt 0.083333 0.000000
vt 0.111111 1.000000
vt 0.111111 0.900000
vt 0.111111 0.800000
vt 0.111111 0.700000
vt 0.111111 0.600000
vt 0.111111 0.500000
vt 0.111111 0.400000
vt 0.111111 0.300000
vt 0.111111 0.200000
vt 0.111111 0.100000
vt 0.111111 0.000000
vt 0.138889 1.000000
vt 0.138889 0.900000
vt 0.138889 0.800000
vt 0.138889 0.700000
vt 0.138889 0.600000
vt 0.138889 0.500000
vt 0.138889 0.400000
vt 0.138889 0.300000
vt 0.138889 0.200000
vt 0.138889 0.100000
vt 0.138889 0.000000
vt 0.166667 1.000000
vt 0.166667 0.900000
vt 0.166667 0.800000
vt 0.166667 0.700000
vt 0.166667 0.600000
vt 0.166667 0.500000
vt 0.166667 0.400000
vt 0.166667 0.300000
vt 0.166667 0.200000
vt 0.166667 0.100000
vt 0.166667 0.000000
vt 0.194444 1.000000
vt 0.194444 0.900000
vt 0.194444 0.800000
vt 0.194444 0.700000
vt 0.194444 0.600000
vt 0.194444 0.500000
vt 0.194444 0.400000
vt 0.194444 0.300000
vt 0.194444 0.200000
vt 0.194444 0.100000
vt 0.194444 0.000000
vt 0.222222 1.000000
vt 0.222222 0.900000
vt 0.222222 0.800000
vt 0.222222 0.700000
vt 0.222222 0.600000
vt 0.222222 0.500000
vt 0.222222 0.400000
vt 0.222222 0.300000
vt 0.222222 0.200000
vt 0.222222 0.100000
vt 0.222222 0.000000
vt 0.861111 1.000000
vt 0.861111 0.900000
vt 0.833333 0.900000
vt 0.833333 1.000000
vt 0.861111 0.800000
vt 0.833333 0.800000
vt 0.861111 0.700000
vt 0.833333 0.700000
vt 0.861111 0.600000
vt 0.833333 0.600000
vt 0.861111 0.500000
vt 0.833333 0.500000
vt 0.861111 0.400000
vt 0.833333 0.400000
vt 0.861111 0.300000
vt 0.833333 0.300000
vt 0.861111 0.200000
vt 0.833333 0.200000
vt 0.861111 0.100000
vt 0.833333 0.100000
vt 0.861111 0.000000
vt 0.833333 0.000000
vt 0.888889 1.000000
vt 0.888889 0.900000
vt 0.888889 0.800000
vt 0.888889 0.700000
vt 0.888889 0.600000
vt 0.888889 0.500000
vt 0.888889 0.400000
vt 0.888889 0.300000
vt 0.888889 0.200000
vt 0.888889 0.100000
vt 0.888889 0.000000
vt 0.916667 1.000000
vt 0.916667 0.900000
vt 0.916667 0.800000
vt 0.916667 0.700000
vt 0.916667 0.600000
vt 0.916667 0.500000
vt 0.916667 0.400000
vt 0.916667 0.300000
vt 0.916667 0.200000
vt 0.916667 0.100000
vt 0.916667 0.000000
vt 0.944444 1.000000
vt 0.944444 0.900000
vt 0.944444 0.800000
vt 0.944444 0.700000
vt 0.944444 0.600000
vt 0.944444 0.500000
vt 0.944444 0.400000
vt 0.944444 0.300000
vt 0.944444 0.200000
vt 0.944444 0.100000
vt 0.944444 0.000000
vt 0.972222 1.000000
vt 0.972222 0.900000
vt 0.972222 0.800000
vt 0.972222 0.700000
vt 0.972222 0.600000
vt 0.972222 0.500000
vt 0.972222 0.400000
vt 0.972222 0.300000
vt 0.972222 0.200000
vt 0.972222 0.100000
vt 0.972222 0.000000
vt 1.000000 1.000000
vt 1.000000 0.900000
vt 1.000000 0.800000
vt 1.000000 0.700000
vt 1.000000 0.600000
vt 1.000000 0.500000
vt 1.000000 0.400000
vt 1.000000 0.300000
vt 1.000000 0.200000
vt 1.000000 0.100000
vt 1.000000 0.000000
vn -0.144700 0.049900 -0.988200
vn -0.173400 0.049900 -0.983600
vn -0.000000 0.049900 -0.998800
vn -0.029100 0.049900 -0.998300
vn 0.000000 1.000000 0.000000
vn -0.173200 0.074800 -0.982100
vn 0.000000 0.074800 -0.997200
vn -0.172300 0.124000 -0.977200
vn 0.000000 0.124000 -0.992300
vn -0.171100 0.172400 -0.970100
vn 0.000000 0.172400 -0.985000
vn -0.168100 0.250400 -0.953400
vn 0.000000 0.250400 -0.968100
vn -0.314100 0.049900 -0.948100
vn -0.341600 0.049900 -0.938500
vn -0.341100 0.074800 -0.937100
vn -0.339400 0.124000 -0.932400
vn -0.336900 0.172400 -0.925600
vn -0.331100 0.250500 -0.909800
vn -0.473900 0.050000 -0.879100
vn -0.499400 0.050000 -0.864900
vn -0.498600 0.074800 -0.863600
vn -0.496100 0.124000 -0.859300
vn -0.492500 0.172400 -0.853100
vn -0.484100 0.250500 -0.838400
vn -0.619400 0.049900 -0.783500
vn -0.642000 0.050000 -0.765100
vn -0.641000 0.074800 -0.763900
vn -0.637800 0.124100 -0.760100
vn -0.633200 0.172400 -0.754600
vn -0.622300 0.250500 -0.741600
vn -0.746000 0.049900 -0.664000
vn -0.765100 0.050000 -0.642000
vn -0.763900 0.074800 -0.641000
vn -0.760100 0.124100 -0.637800
vn -0.754600 0.172400 -0.633200
vn -0.741600 0.250500 -0.622300
vn -0.850000 0.050000 -0.524400
vn -0.864900 0.050000 -0.499400
vn -0.863600 0.074800 -0.498600
vn -0.859300 0.124000 -0.496100
vn -0.853100 0.172400 -0.492500
vn -0.838400 0.250500 -0.484100
vn -0.928200 0.049900 -0.368800
vn -0.938500 0.049900 -0.341600
vn -0.937100 0.074800 -0.341100
vn -0.932400 0.124000 -0.339400
vn -0.925600 0.172400 -0.336900
vn -0.909800 0.250500 -0.331100
vn -0.909700 0.250500 -0.331100
vn -0.978100 0.049900 -0.202000
vn -0.983600 0.049900 -0.173500
vn -0.982100 0.074800 -0.173100
vn -0.977200 0.124000 -0.172300
vn -0.970100 0.172400 -0.171100
vn -0.953400 0.250400 -0.168100
vn 0.783500 0.050000 -0.619400
vn 0.765100 0.050000 -0.642000
vn 0.864900 0.050000 -0.499400
vn 0.879100 0.050000 -0.473900
vn 0.763900 0.074800 -0.641000
vn 0.863600 0.074800 -0.498600
vn 0.760100 0.124100 -0.637800
vn 0.859300 0.124000 -0.496200
vn 0.754600 0.172400 -0.633200
vn 0.853100 0.172400 -0.492500
vn 0.741600 0.250500 -0.622300
vn 0.838400 0.250500 -0.484100
vn 0.664000 0.049900 -0.746000
vn 0.642000 0.050000 -0.765100
vn 0.641000 0.074800 -0.763900
vn 0.637800 0.124100 -0.760100
vn 0.633200 0.172400 -0.754600
vn 0.622300 0.250500 -0.741600
vn 0.524400 0.050000 -0.850000
vn 0.499400 0.050000 -0.864900
vn 0.498600 0.074800 -0.863600
vn 0.496100 0.124000 -0.859300
vn 0.492500 0.172400 -0.853100
vn 0.484100 0.250500 -0.838400
vn 0.368800 0.049900 -0.928200
vn 0.341600 0.049900 -0.938500
vn 0.341100 0.074800 -0.937100
vn 0.339400 0.124000 -0.932400
vn 0.336900 0.172400 -0.925600
vn 0.331100 0.250500 -0.909800
vn 0.331100 0.250500 -0.909700
vn 0.202000 0.049900 -0.978100
vn 0.173400 0.049900 -0.983600
vn 0.173200 0.074800 -0.982100
vn 0.172300 0.124000 -0.977200
vn 0.171100 0.172400 -0.970100
vn 0.168100 0.250400 -0.953400
usemtl Standard
s 1
f 2/1/1 17/2/2 16/3/3 1/4/4
f 17/2/5 32/5/5 31/6/5 16/3/5
f 32/5/6 47/7/6 46/8/7 31/6/7
f 47/7/5 62/9/5 61/10/5 46/8/5
f 62/9/8 77/11/8 76/12/9 61/10/9
f 77/11/5 92/13/5 91/14/5 76/12/5
f 92/13/10 107/15/10 106/16/11 91/14/11
f 107/15/5 122/17/5 121/18/5 106/16/5
f 122/17/12 137/19/12 136/20/13 121/18/13
f 137/19/5 152/21/5 151/22/5 136/20/5
f 3/23/14 18/24/15 17/2/2 2/1/1
f 18/24/5 33/25/5 32/5/5 17/2/5
f 33/25/16 48/26/16 47/7/6 32/5/6
f 48/26/5 63/27/5 62/9/5 47/7/5
f 63/27/17 78/28/17 77/11/8 62/9/8
f 78/28/5 93/29/5 92/13/5 77/11/5
f 93/29/18 108/30/18 107/15/10 92/13/10
f 108/30/5 123/31/5 122/17/5 107/15/5
f 123/31/19 138/32/19 137/19/12 122/17/12
f 138/32/5 153/33/5 152/21/5 137/19/5
f 4/34/20 19/35/21 18/24/15 3/23/14
f 19/35/5 34/36/5 33/25/5 18/24/5
f 34/36/22 49/37/22 48/26/16 33/25/16
f 49/37/5 64/38/5 63/27/5 48/26/5
f 64/38/23 79/39/23 78/28/17 63/27/17
f 79/39/5 94/40/5 93/29/5 78/28/5
f 94/40/24 109/41/24 108/30/18 93/29/18
f 109/41/5 124/42/5 123/31/5 108/30/5
f 124/42/25 139/43/25 138/32/19 123/31/19
f 139/43/5 154/44/5 153/33/5 138/32/5
f 5/45/26 20/46/27 19/35/21 4/34/20
f 20/46/5 35/47/5 34/36/5 19/35/5
f 35/47/28 50/48/28 49/37/22 34/36/22
f 50/48/5 65/49/5 64/38/5 49/37/5
f 65/49/29 80/50/29 79/39/23 64/38/23
f 80/50/5 95/51/5 94/40/5 79/39/5
f 95/51/30 110/52/30 109/41/24 94/40/24
f 110/52/5 125/53/5 124/42/5 109/41/5
f 125/53/31 140/54/31 139/43/25 124/42/25
f 140/54/5 155/55/5 154/44/5 139/43/5
f 6/56/32 21/57/33 20/46/27 5/45/26
f 21/57/5 36/58/5 35/47/5 20/46/5
f 36/58/34 51/59/34 50/48/28 35/47/28
f 51/59/5 66/60/5 65/49/5 50/48/5
f 66/60/35 81/61/35 80/50/29 65/49/29
f 81/61/5 96/62/5 95/51/5 80/50/5
f 96/62/36 111/63/36 110/52/30 95/51/30
f 111/63/5 126/64/5 125/53/5 110/52/5
f 126/64/37 141/65/37 140/54/31 125/53/31
f 141/65/5 156/66/5 155/55/5 140/54/5
f 7/67/38 22/68/39 21/57/33 6/56/32
f 22/68/5 37/69/5 36/58/5 21/57/5
f 37/69/40 52/70/40 51/59/34 36/58/34
f 52/70/5 67/71/5 66/60/5 51/59/5
f 67/71/41 82/72/41 81/61/35 66/60/35
f 82/72/5 97/73/5 96/62/5 81/61/5
f 97/73/42 112/74/42 111/63/36 96/62/36
f 112/74/5 127/75/5 126/64/5 111/63/5
f 127/75/43 142/76/43 141/65/37 126/64/37
f 142/76/5 157/77/5 156/66/5 141/65/5
f 8/78/44 23/79/45 22/68/39 7/67/38
f 23/79/5 38/80/5 37/69/5 22/68/5
f 38/80/46 53/81/46 52/70/40 37/69/40
f 53/81/5 68/82/5 67/71/5 52/70/5
f 68/82/47 83/83/47 82/72/41 67/71/41
f 83/83/5 98/84/5 97/73/5 82/72/5
f 98/84/48 113/85/48 112/74/42 97/73/42
f 113/85/5 128/86/5 127/75/5 112/74/5
f 128/86/49 143/87/50 142/76/43 127/75/43
f 143/87/5 158/88/5 157/77/5 142/76/5
f 9/89/51 24/90/52 23/79/45 8/78/44
f 24/90/5 39/91/5 38/80/5 23/79/5
f 39/91/53 54/92/53 53/81/46 38/80/46
f 54/92/5 69/93/5 68/82/5 53/81/5
f 69/93/54 84/94/54 83/83/47 68/82/47
f 84/94/5 99/95/5 98/84/5 83/83/5
f 99/95/55 114/96/55 113/85/48 98/84/48
f 114/96/5 129/97/5 128/86/5 113/85/5
f 129/97/56 144/98/56 143/87/50 128/86/49
f 144/98/5 159/99/5 158/88/5 143/87/5
f 11/100/57 26/101/58 25/102/59 10/103/60
f 26/101/5 41/104/5 40/105/5 25/102/5
f 41/104/61 56/106/61 55/107/62 40/105/62
f 56/106/5 71/108/5 70/109/5 55/107/5
f 71/108/63 86/110/63 85/111/64 70/109/64
f 86/110/5 101/112/5 100/113/5 85/111/5
f 101/112/65 116/114/65 115/115/66 100/113/66
f 116/114/5 131/116/5 130/117/5 115/115/5
f 131/116/67 146/118/67 145/119/68 130/117/68
f 146/118/5 161/120/5 160/121/5 145/119/5
f 12/122/69 27/123/70 26/101/58 11/100/57
f 27/123/5 42/124/5 41/104/5 26/101/5
f 42/124/71 57/125/71 56/106/61 41/104/61
f 57/125/5 72/126/5 71/108/5 56/106/5
f 72/126/72 87/127/72 86/110/63 71/108/63
f 87/127/5 102/128/5 101/112/5 86/110/5
f 102/128/73 117/129/73 116/114/65 101/112/65
f 117/129/5 132/130/5 131/116/5 116/114/5
f 132/130/74 147/131/74 146/118/67 131/116/67
f 147/131/5 162/132/5 161/120/5 146/118/5
f 13/133/75 28/134/76 27/123/70 12/122/69
f 28/134/5 43/135/5 42/124/5 27/123/5
f 43/135/77 58/136/77 57/125/71 42/124/71
f 58/136/5 73/137/5 72/126/5 57/125/5
f 73/137/78 88/138/78 87/127/72 72/126/72
f 88/138/5 103/139/5 102/128/5 87/127/5
f 103/139/79 118/140/79 117/129/73 102/128/73
f 118/140/5 133/141/5 132/130/5 117/129/5
f 133/141/80 148/142/80 147/131/74 132/130/74
f 148/142/5 163/143/5 162/132/5 147/131/5
f 14/144/81 29/145/82 28/134/76 13/133/75
f 29/145/5 44/146/5 43/135/5 28/134/5
f 44/146/83 59/147/83 58/136/77 43/135/77
f 59/147/5 74/148/5 73/137/5 58/136/5
f 74/148/84 89/149/84 88/138/78 73/137/78
f 89/149/5 104/150/5 103/139/5 88/138/5
f 104/150/85 119/151/85 118/140/79 103/139/79
f 119/151/5 134/152/5 133/141/5 118/140/5
f 134/152/86 149/153/87 148/142/80 133/141/80
f 149/153/5 164/154/5 163/143/5 148/142/5
f 15/155/88 30/156/89 29/145/82 14/144/81
f 30/156/5 45/157/5 44/146/5 29/145/5
f 45/157/90 60/158/90 59/147/83 44/146/83
f 60/158/5 75/159/5 74/148/5 59/147/5
f 75/159/91 90/160/91 89/149/84 74/148/84
f 90/160/5 105/161/5 104/150/5 89/149/5
f 105/161/92 120/162/92 119/151/85 104/150/85
f 120/162/5 135/163/5 134/152/5 119/151/5
f 135/163/93 150/164/93 149/153/87 134/152/86
f 150/164/5 165/165/5 164/154/5 149/153/5
f 1/166/4 16/167/3 30/156/89 15/155/88
f 16/167/5 31/168/5 45/157/5 30/156/5
f 31/168/7 46/169/7 60/158/90 45/157/90
f 46/169/5 61/170/5 75/159/5 60/158/5
f 61/170/9 76/171/9 90/160/91 75/159/91
f 76/171/5 91/172/5 105/161/5 90/160/5
f 91/172/11 106/173/11 120/162/92 105/161/92
f 106/173/5 121/174/5 135/163/5 120/162/5
f 121/174/13 136/175/13 150/164/93 135/163/93
f 136/175/5 151/176/5 165/165/5 150/164/5
