# Blender v2.74 (sub 0) OBJ File: ''
# www.blender.org
mtllib student.mtl
o Mask
v 1.023403 1.797208 2.258600
v 0.544217 2.267423 2.584464
v 2.298352 2.304149 1.235869
v 2.155224 3.018725 1.299253
v 1.346908 3.654013 1.684423
v 0.666957 3.790054 1.994171
v 1.737676 1.725125 1.686411
v 0.528478 2.533737 2.233088
v 1.130100 2.240012 2.047595
v 0.228940 2.682375 2.346445
v 1.707177 2.855633 1.557502
v 1.189871 3.196258 1.800596
v 1.768525 2.500649 1.514993
v 1.516094 2.211206 1.740027
v 0.767354 3.261314 1.959721
v 0.276747 3.141057 2.255867
v 0.548569 3.019913 2.121119
v -1.023403 1.797208 2.258600
v -0.544217 2.267423 2.584464
v -2.298352 2.304149 1.235869
v 0.000000 2.713320 2.389843
v -2.155224 3.018725 1.299253
v 0.000000 2.504049 2.665923
v -1.346908 3.654013 1.684423
v -0.666957 3.790054 1.994171
v 0.000000 3.821161 2.124043
v -1.737676 1.725125 1.686411
v -0.528478 2.533737 2.233088
v -1.130100 2.240012 2.047595
v -0.228940 2.682375 2.346445
v -1.707177 2.855633 1.557502
v -1.189871 3.196258 1.800596
v -1.768525 2.500649 1.514993
v -1.516094 2.211206 1.740027
v -0.767354 3.261314 1.959721
v 0.000000 3.191509 2.346186
v -0.276747 3.141057 2.255867
v -0.548569 3.019913 2.121119
vt 0.554142 0.805808
vt 0.620921 0.936714
vt 0.500000 0.931100
vt 0.500000 0.810260
vt 0.549398 0.713084
vt 0.500000 0.712990
vt 0.500000 0.644849
vt 0.604537 0.617075
vt 0.745843 0.661313
vt 0.618138 0.697522
vt 0.731110 0.568712
vt 0.739472 0.847959
vt 0.855750 0.807938
vt 0.941909 0.858411
vt 0.757619 0.936837
vt 0.884544 0.747412
vt 0.999939 0.737332
vt 0.613893 0.792288
vt 0.655487 0.845193
vt 0.837078 0.680426
vt 0.897745 0.601481
vt 0.445858 0.805808
vt 0.379079 0.936714
vt 0.450602 0.713084
vt 0.395463 0.617075
vt 0.254157 0.661313
vt 0.268889 0.568712
vt 0.381862 0.697522
vt 0.260528 0.847959
vt 0.242381 0.936837
vt 0.058091 0.858411
vt 0.144250 0.807938
vt 0.000061 0.737332
vt 0.115456 0.747412
vt 0.386107 0.792288
vt 0.344513 0.845193
vt 0.162922 0.680426
vt 0.102255 0.601482
vn 0.354700 0.168900 0.919600
vn 0.377500 0.134500 0.916200
vn -0.000000 0.286700 0.958000
vn -0.000000 0.213500 0.976900
vn 0.405900 0.424700 0.809200
vn -0.000000 0.453100 0.891500
vn 0.000000 0.739000 0.673700
vn 0.539500 0.565200 0.624100
vn 0.625700 0.314100 0.714000
vn 0.559100 0.465200 0.686300
vn 0.625500 0.330100 0.707000
vn 0.433900 0.062400 0.898800
vn 0.475300 0.044100 0.878700
vn 0.477500 0.031100 0.878100
vn 0.434800 0.062700 0.898300
vn 0.502900 0.085200 0.860100
vn 0.502600 0.084100 0.860400
vn 0.481200 0.107500 0.870000
vn 0.454900 0.059100 0.888600
vn 0.574800 0.185900 0.796900
vn 0.568600 0.183500 0.801900
vn -0.354700 0.168900 0.919600
vn -0.377500 0.134500 0.916200
vn -0.405900 0.424700 0.809200
vn -0.539500 0.565200 0.624100
vn -0.625700 0.314100 0.714000
vn -0.625500 0.330100 0.707000
vn -0.559100 0.465200 0.686300
vn -0.433900 0.062400 0.898800
vn -0.434800 0.062700 0.898300
vn -0.477500 0.031100 0.878100
vn -0.475300 0.044100 0.878700
vn -0.502600 0.084100 0.860400
vn -0.502900 0.085200 0.860100
vn -0.481200 0.107500 0.870000
vn -0.454900 0.059100 0.888600
vn -0.574800 0.185900 0.796900
vn -0.568600 0.183500 0.801900
usemtl Mask
s 1
f 16/1/1 6/2/2 26/3/3 36/4/4
f 10/5/5 21/6/6 23/7/7 2/8/8
f 9/9/9 8/10/10 2/8/8 1/11/11
f 8/10/10 10/5/5 2/8/8
f 12/12/12 11/13/13 4/14/14 5/15/15
f 11/13/13 13/16/16 3/17/17 4/14/14
f 17/18/18 15/19/19 6/2/2 16/1/1
f 15/19/19 12/12/12 5/15/15 6/2/2
f 14/20/20 9/9/9 1/11/11 7/21/21
f 13/16/16 14/20/20 7/21/21 3/17/17
f 8/10/10 17/18/18 16/1/1 10/5/5
f 10/5/5 16/1/1 36/4/4 21/6/6
f 37/22/22 36/4/4 26/3/3 25/23/23
f 30/24/24 19/25/25 23/7/7 21/6/6
f 29/26/26 18/27/27 19/25/25 28/28/28
f 28/28/28 19/25/25 30/24/24
f 32/29/29 24/30/30 22/31/31 31/32/32
f 31/32/32 22/31/31 20/33/33 33/34/34
f 38/35/35 37/22/22 25/23/23 35/36/36
f 35/36/36 25/23/23 24/30/30 32/29/29
f 34/37/37 27/38/38 18/27/27 29/26/26
f 33/34/34 20/33/33 27/38/38 34/37/37
f 28/28/28 30/24/24 37/22/22 38/35/35
f 30/24/24 21/6/6 36/4/4 37/22/22
o Student_Character
v 2.110204 3.955070 -0.149402
v 2.335549 2.213110 -0.214625
v 1.036993 4.638521 -0.291954
v 0.577906 4.641247 -1.729585
v 1.223862 4.051369 -1.761931
v 1.917159 3.762272 -1.263010
v 2.015216 2.124107 -1.216158
v 0.167554 2.390949 2.715729
v 0.726892 1.789711 2.275417
v 0.371673 4.909783 -2.087024
v 0.319194 5.111922 -1.519267
v 2.126637 0.855751 -0.119057
v 1.059099 0.769216 -1.148966
v 1.890276 1.016667 -0.897092
v 1.097548 2.006861 -1.924982
v 2.197031 3.563104 1.316614
v 2.387097 2.308496 1.255994
v 2.329923 1.016867 1.235614
v 1.465069 0.393060 1.808742
v 1.267853 4.330077 1.623331
v 0.478703 2.451865 2.247074
v 0.489372 4.999855 -0.907425
v 1.186117 0.233985 -0.117450
v 2.576665 2.303647 0.929453
v 2.172533 2.292507 1.237526
v 2.505201 0.893627 0.910637
v 2.130632 1.125155 1.216220
v 1.333858 0.544627 1.749627
v 1.594503 0.230473 1.508506
v 1.144776 4.158917 1.572554
v 1.394561 4.468627 1.319807
v 1.992374 3.442520 1.287744
v 2.381806 3.656084 0.999170
v -2.110204 3.955070 -0.149402
v -2.335549 2.213110 -0.214625
v -1.036993 4.638521 -0.291954
v 0.000000 4.923251 -0.259332
v 0.000000 1.919047 -2.141773
v -0.577906 4.641247 -1.729585
v 0.000000 4.226487 -2.001501
v -1.223862 4.051369 -1.761931
v -1.917159 3.762272 -1.263010
v -2.015216 2.124107 -1.216158
v -0.167554 2.390949 2.715729
v 0.000000 2.390329 2.737113
v -0.726892 1.789711 2.275417
v 0.000000 1.630823 2.593445
v 0.000000 4.895907 -2.171162
v 0.000000 2.553810 2.373059
v -0.371673 4.909783 -2.087024
v 0.000000 5.191882 -1.510106
v -0.319194 5.111922 -1.519267
v 0.000000 4.617837 -1.871532
v -2.126637 0.855751 -0.119057
v 0.000000 0.747779 -1.167285
v -1.059099 0.769216 -1.148966
v -1.890276 1.016667 -0.897092
v -1.097548 2.006861 -1.924982
v -2.197031 3.563104 1.316614
v 0.000000 0.137830 2.074572
v -2.387097 2.308496 1.255994
v -2.329923 1.016867 1.235614
v -1.465069 0.393060 1.808742
v 0.000000 4.558407 1.916119
v -1.267853 4.330077 1.623331
v -0.478703 2.451865 2.247074
v 0.000000 5.134754 -0.891969
v -0.489372 4.999855 -0.907425
v 0.000000 0.145814 -0.060188
v -1.186117 0.233985 -0.117450
v 0.000000 4.372263 1.849199
v 0.000000 4.710444 1.620897
v -2.576665 2.303647 0.929453
v -2.172533 2.292507 1.237526
v -2.505201 0.893627 0.910637
v -2.130632 1.125155 1.216220
v 0.000000 -0.025954 1.771183
v 0.000000 0.293113 2.011028
v -1.333858 0.544627 1.749627
v -1.594503 0.230473 1.508506
v -1.144776 4.158917 1.572554
v -1.394561 4.468627 1.319807
v -1.992374 3.442520 1.287744
v -2.381806 3.656084 0.999170
vt 0.378441 0.678094
vt 0.461400 0.569727
vt 0.572591 0.667348
vt 0.529923 0.768232
vt 0.810758 0.323395
vt 0.942369 0.294534
vt 0.939893 0.438030
vt 0.812783 0.428354
vt 0.505222 0.452684
vt 0.300204 0.440229
vt 0.309681 0.332719
vt 0.498564 0.351430
vt 0.179628 0.315747
vt 0.230647 0.518973
vt 0.090650 0.580672
vt 0.056743 0.545785
vt 0.141762 0.485510
vt 0.300501 0.780197
vt 0.464244 0.878990
vt 0.652050 0.236887
vt 0.779192 0.176041
vt 0.663139 0.334492
vt 0.862456 0.728997
vt 0.901360 0.756996
vt 0.934854 0.666174
vt 0.834038 0.652131
vt 0.020169 0.364339
vt 0.103917 0.368297
vt 0.066115 0.429372
vt 0.007224 0.436228
vt 0.016754 0.515300
vt 0.064502 0.490094
vt 0.820072 0.741745
vt 0.861542 0.788667
vt 0.041721 0.288795
vt 0.103498 0.078183
vt 0.208410 0.184745
vt 0.910536 0.073423
vt 0.646226 0.425776
vt 0.610897 0.621374
vt 0.566867 0.757254
vt 0.347373 0.237984
vt 0.496004 0.240245
vt 0.805833 0.463083
vt 0.672541 0.486949
vt 0.351391 0.185701
vt 0.493582 0.184535
vt 0.612930 0.883761
vt 0.972308 0.481017
vt 0.226647 0.136481
vt 0.121048 0.044908
vt 0.137941 0.029938
vt 0.245023 0.101464
vt 0.761672 0.123927
vt 0.643234 0.182851
vt 0.631831 0.140377
vt 0.742711 0.088217
vt 0.493207 0.144045
vt 0.894056 0.034495
vt 0.881077 0.019476
vt 0.360363 0.143360
vt 0.710921 0.979716
vn 0.359700 -0.234400 -0.903200
vn 0.805400 -0.121700 -0.580000
vn 0.687000 -0.503400 -0.524100
vn 0.275900 -0.708400 -0.649700
vn 0.277000 -0.921100 -0.273800
vn -0.000000 -0.964100 -0.265700
vn 0.000000 -0.755100 -0.655700
vn 0.778900 0.389000 -0.492000
vn 0.816500 0.551500 -0.170600
vn 0.966300 -0.011700 -0.257100
vn 0.464100 0.885300 -0.028500
vn 0.528000 0.422000 -0.737000
vn 0.000000 0.194500 -0.980900
vn -0.000000 -0.265500 -0.964100
vn 0.658100 0.429700 -0.618300
vn 0.000000 -0.284500 -0.958700
vn 0.889500 -0.446000 0.099100
vn 0.474700 -0.839900 0.263100
vn 0.779000 -0.553000 -0.295600
vn 0.476000 0.431500 0.766300
vn 0.000000 0.464900 0.885300
vn 0.000000 -0.289800 0.957100
vn 0.495100 -0.080000 0.865200
vn 0.000000 0.978200 0.207700
vn 0.485400 0.872600 0.054700
vn 0.509900 0.848600 -0.141100
vn 0.000000 0.991200 -0.132300
vn -0.000000 0.140700 -0.990100
vn 0.562700 0.210600 -0.799400
vn 0.510100 0.328500 0.794900
vn -0.000000 0.687600 0.726100
vn 0.000000 0.979000 0.204000
vn 0.000000 0.951200 0.308400
vn 0.475100 0.833100 0.283100
vn 0.000000 -0.966500 0.256500
vn 0.221800 0.001800 0.975100
vn 0.182500 -0.060900 0.981300
vn 0.882100 0.431800 0.188300
vn 0.990100 0.026400 0.137600
vn 0.306900 0.194500 0.931700
vn 0.256600 0.149600 0.954900
vn 0.521900 0.160500 0.837800
vn 0.484500 -0.002700 0.874800
vn 0.225700 -0.107300 0.968300
vn 0.000000 0.091900 0.995800
vn 0.343700 0.338200 0.876000
vn 0.000000 0.370000 0.929000
vn -0.000000 -0.087400 0.996200
vn 0.379000 -0.224900 0.897600
vn 0.606200 -0.089600 0.790200
vn -0.000000 -0.336600 0.941600
vn -0.359700 -0.234400 -0.903200
vn -0.275900 -0.708400 -0.649700
vn -0.687000 -0.503400 -0.524100
vn -0.805400 -0.121700 -0.580000
vn -0.277000 -0.921100 -0.273800
vn -0.966300 -0.011700 -0.257100
vn -0.816500 0.551500 -0.170600
vn -0.778900 0.389000 -0.492000
vn -0.464100 0.885300 -0.028500
vn -0.528000 0.422000 -0.737000
vn -0.658100 0.429700 -0.618300
vn -0.889500 -0.446000 0.099100
vn -0.779000 -0.553000 -0.295600
vn -0.474700 -0.839900 0.263100
vn -0.476000 0.431500 0.766300
vn -0.495100 -0.080000 0.865200
vn -0.509900 0.848600 -0.141100
vn -0.485400 0.872600 0.054700
vn -0.562700 0.210600 -0.799400
vn -0.510100 0.328500 0.794900
vn -0.475100 0.833100 0.283100
vn -0.221800 0.001800 0.975100
vn -0.182500 -0.060900 0.981300
vn -0.882100 0.431800 0.188300
vn -0.990100 0.026400 0.137600
vn -0.256600 0.149600 0.954900
vn -0.306900 0.194500 0.931700
vn -0.484500 -0.002700 0.874800
vn -0.521900 0.160500 0.837800
vn -0.225700 -0.107300 0.968300
vn -0.343700 0.338200 0.876000
vn -0.379000 -0.224900 0.897600
vn -0.606200 -0.089600 0.790200
usemtl Student
s 1
f 53/39/39 45/40/40 52/41/41 51/42/42
f 61/43/43 107/44/44 93/45/45 51/46/42
f 45/47/40 44/48/46 39/49/47 40/50/48
f 41/51/49 39/49/47 44/48/46 43/52/50
f 43/52/50 78/53/51 91/54/52 42/55/53
f 76/56/54 53/39/39 51/42/42 93/57/45
f 64/58/55 67/59/56 61/43/43 50/60/57
f 46/61/58 83/62/59 85/63/60 47/64/61
f 105/65/62 60/66/63 49/67/64 89/68/65
f 86/69/66 89/68/65 49/67/64 48/70/67
f 59/71/68 87/72/69 83/62/59 46/61/58
f 60/66/63 42/55/53 48/70/67 49/67/64
f 47/64/61 59/71/68 46/61/58
f 75/73/70 110/74/71 69/75/72 41/51/49
f 107/44/44 61/43/43 67/59/56 115/76/73
f 50/60/57 61/43/43 51/46/42 52/77/41
f 45/47/40 40/50/48 50/60/57 52/77/41
f 63/78/74 70/79/75 59/71/68 47/64/61
f 71/80/76 62/81/77 40/50/48 39/49/47
f 63/78/74 47/64/61 66/82/78 65/83/79
f 44/48/46 45/40/40 53/39/39 43/52/50
f 78/53/51 43/52/50 53/39/39 76/56/54
f 62/81/77 71/80/76 54/84/80 55/85/81
f 42/55/53 91/54/52 86/69/66 48/70/67
f 75/73/70 41/51/49 60/66/63 105/65/62
f 41/51/49 43/52/50 42/55/53 60/66/63
f 41/51/49 69/75/72 71/80/76 39/49/47
f 62/81/77 64/58/55 50/60/57 40/50/48
f 70/79/75 68/86/82 59/71/68
f 47/64/61 85/63/60 116/87/83 66/82/78
f 58/88/84 102/89/85 109/90/86 68/91/82
f 57/92/87 56/93/88 65/94/79 66/95/78
f 56/93/88 55/85/81 63/96/74 65/94/79
f 98/97/89 57/92/87 66/95/78 116/98/83
f 54/84/80 58/88/84 68/91/82 70/99/75
f 55/85/81 54/84/80 70/99/75 63/96/74
f 87/72/69 59/71/68 68/86/82 109/100/86
f 71/80/76 69/75/72 58/88/84 54/84/80
f 115/76/73 67/59/56 57/92/87 98/97/89
f 64/58/55 62/81/77 55/85/81 56/93/88
f 67/59/56 64/58/55 56/93/88 57/92/87
f 69/75/72 110/74/71 102/89/85 58/88/84
f 96/39/90 94/42/91 95/41/92 81/40/93
f 108/43/94 94/46/91 93/45/45 107/44/44
f 81/47/93 73/50/95 72/49/96 80/48/97
f 74/51/98 79/52/99 80/48/97 72/49/96
f 79/52/99 77/55/100 91/54/52 78/53/51
f 76/56/54 93/57/45 94/42/91 96/39/90
f 113/58/101 92/60/102 108/43/94 118/59/103
f 82/61/104 84/64/105 85/63/60 83/62/59
f 105/65/62 89/68/65 90/67/106 106/66/107
f 86/69/66 88/70/108 90/67/106 89/68/65
f 104/71/109 82/61/104 83/62/59 87/72/69
f 106/66/107 90/67/106 88/70/108 77/55/100
f 84/64/105 82/61/104 104/71/109
f 75/73/70 74/51/98 120/75/110 110/74/71
f 107/44/44 115/76/73 118/59/103 108/43/94
f 92/60/102 95/77/92 94/46/91 108/43/94
f 81/47/93 95/77/92 92/60/102 73/50/95
f 112/78/111 84/64/105 104/71/109 121/79/112
f 122/80/113 72/49/96 73/50/95 111/81/114
f 112/78/111 114/83/115 117/82/116 84/64/105
f 80/48/97 79/52/99 96/39/90 81/40/93
f 78/53/51 76/56/54 96/39/90 79/52/99
f 111/81/114 99/85/117 97/84/118 122/80/113
f 77/55/100 88/70/108 86/69/66 91/54/52
f 75/73/70 105/65/62 106/66/107 74/51/98
f 74/51/98 106/66/107 77/55/100 79/52/99
f 74/51/98 72/49/96 122/80/113 120/75/110
f 111/81/114 73/50/95 92/60/102 113/58/101
f 121/79/112 104/71/109 119/86/119
f 84/64/105 117/82/116 116/87/83 85/63/60
f 103/88/120 119/91/119 109/90/86 102/89/85
f 101/92/121 117/95/116 114/94/115 100/93/122
f 100/93/122 114/94/115 112/96/111 99/85/117
f 98/97/89 116/98/83 117/95/116 101/92/121
f 97/84/118 121/99/112 119/91/119 103/88/120
f 99/85/117 112/96/111 121/99/112 97/84/118
f 87/72/69 109/100/86 119/86/119 104/71/109
f 122/80/113 97/84/118 103/88/120 120/75/110
f 115/76/73 98/97/89 101/92/121 118/59/103
f 113/58/101 100/93/122 99/85/117 111/81/114
f 118/59/103 101/92/121 100/93/122 113/58/101
f 120/75/110 103/88/120 102/89/85 110/74/71
